<svg width="58" height="57" viewBox="0 0 58 57" fill="none" xmlns="http://www.w3.org/2000/svg">
<path d="M0 28.5C0 12.7599 12.7599 0 28.5 0H58V28C58 44.0162 44.7641 57 28.7478 57C13.0077 57 0 44.2401 0 28.5Z" fill="#213CC1"/>
<g clip-path="url(#clip0_2_17)">
<path d="M50.375 39.75H49.4037C49.6289 39.3717 49.749 38.9402 49.7515 38.5V27.25C49.7508 26.5872 49.4871 25.9517 49.0184 25.4831C48.5498 25.0144 47.9143 24.7507 47.2515 24.75H32.8765C32.5471 24.75 32.221 24.8156 31.9171 24.9428C31.4126 24.8202 30.8957 24.7555 30.3765 24.75H28.189V24.2697C28.8302 23.8132 29.3742 23.2339 29.7894 22.5652C30.2047 21.8966 30.4828 21.1521 30.6076 20.375H30.6889C31.3517 20.3743 31.9871 20.1106 32.4558 19.6419C32.9245 19.1733 33.1881 18.5378 33.1889 17.875V15.0625C33.1889 12.8247 32.2999 10.6786 30.7176 9.09629C29.1353 7.51395 26.9891 6.625 24.7514 6.625C22.5136 6.625 20.3675 7.51395 18.7852 9.09629C17.2028 10.6786 16.3139 12.8247 16.3139 15.0625V17.875C16.3146 18.5378 16.5783 19.1733 17.0469 19.6419C17.5156 20.1106 18.1511 20.3742 18.8139 20.375H18.8951C19.02 21.1521 19.2981 21.8966 19.7134 22.5652C20.1286 23.2339 20.6727 23.8132 21.3139 24.2697V24.75H19.1264C17.3036 24.7521 15.5562 25.4771 14.2673 26.7659C12.9784 28.0548 12.2534 29.8023 12.2514 31.625V37.875C12.2538 38.5534 12.4791 39.2122 12.8925 39.75H11.625C11.4592 39.75 11.3003 39.8158 11.1831 39.9331C11.0658 40.0503 11 40.2092 11 40.375V44.75C11 44.9158 11.0658 45.0747 11.1831 45.1919C11.3003 45.3092 11.4592 45.375 11.625 45.375H50.375C50.5408 45.375 50.6997 45.3092 50.8169 45.1919C50.9342 45.0747 51 44.9158 51 44.75V40.375C51 40.2092 50.9342 40.0503 50.8169 39.9331C50.6997 39.8158 50.5408 39.75 50.375 39.75ZM47.2515 26C47.5829 26.0003 47.9007 26.1321 48.135 26.3665C48.3694 26.6008 48.5012 26.9186 48.5015 27.25V38.5C48.5012 38.8314 48.3694 39.1492 48.135 39.3835C47.9007 39.6179 47.5829 39.7497 47.2515 39.75H31.6265V27.25C31.6268 26.9186 31.7586 26.6008 31.993 26.3665C32.2273 26.1321 32.5451 26.0003 32.8765 26H47.2515ZM28.4581 39.75C28.3752 39.0888 28.1599 38.4511 27.825 37.875H30.3765V39.75H28.4581ZM24.1265 36.6818C24.8933 36.8121 25.6008 37.1773 26.1512 37.7269C26.7016 38.2764 27.0678 38.9834 27.1993 39.75H24.1265V36.6818ZM30.689 19.125V16.625C31.0205 16.625 31.3385 16.7567 31.5729 16.9911C31.8073 17.2255 31.939 17.5435 31.939 17.875C31.939 18.2065 31.8073 18.5245 31.5729 18.7589C31.3385 18.9933 31.0205 19.125 30.689 19.125ZM24.7515 7.875C26.6571 7.8771 28.484 8.63503 29.8315 9.98249C31.179 11.33 31.9369 13.1569 31.939 15.0625V15.7228C31.5608 15.4976 31.1292 15.3775 30.689 15.375H30.371L28.1437 12.4929C28.0882 12.4211 28.0177 12.3622 27.9372 12.3203C27.8566 12.2785 27.7678 12.2547 27.6771 12.2506C27.5864 12.2466 27.4959 12.2623 27.4119 12.2968C27.3279 12.3312 27.2524 12.3836 27.1907 12.4502C26.3342 13.3714 25.2973 14.1065 24.1445 14.6096C22.9916 15.1128 21.7476 15.3733 20.4897 15.375H18.814C18.3738 15.3775 17.9422 15.4976 17.564 15.7228V15.0625C17.5661 13.1569 18.324 11.33 19.6715 9.98251C21.019 8.63505 22.8459 7.87712 24.7515 7.875ZM17.564 17.875C17.5643 17.5436 17.6961 17.2258 17.9305 16.9915C18.1648 16.7571 18.4826 16.6253 18.814 16.625V19.125C18.4826 19.1247 18.1648 18.9929 17.9305 18.7585C17.6961 18.5242 17.5643 18.2064 17.564 17.875ZM20.064 19.4375V16.625H20.4897C23.1259 16.6213 25.6628 15.6191 27.5898 13.8201L29.4391 16.2133V19.4375C29.4391 20.6807 28.9452 21.873 28.0661 22.7521C27.187 23.6311 25.9948 24.125 24.7516 24.125C23.5084 24.125 22.3161 23.6311 21.437 22.7521C20.5579 21.873 20.064 20.6807 20.064 19.4375ZM24.7515 25.375C25.5009 25.3743 26.2433 25.2308 26.939 24.9522V25.6875C26.939 26.2677 26.7085 26.8241 26.2983 27.2343C25.8881 27.6445 25.3317 27.875 24.7515 27.875C24.1713 27.875 23.6149 27.6445 23.2047 27.2343C22.7945 26.8241 22.564 26.2677 22.564 25.6875V24.9522C23.2597 25.2308 24.0021 25.3743 24.7515 25.375ZM13.5015 37.875V31.625C13.5032 30.1337 14.0963 28.7039 15.1509 27.6494C16.2054 26.5948 17.6352 26.0017 19.1265 26H21.3299C21.4075 26.8539 21.8015 27.6479 22.4346 28.2261C23.0677 28.8043 23.8941 29.1249 24.7515 29.1249C25.6089 29.1249 26.4353 28.8043 27.0685 28.2261C27.7016 27.6479 28.0956 26.8539 28.1732 26H30.3765C30.4871 26 30.6 26.0161 30.7117 26.0233C30.4948 26.3959 30.3792 26.8188 30.3765 27.25V36.625H26.7976C25.8884 35.8199 24.716 35.3753 23.5015 35.375H17.2515C17.0857 35.375 16.9268 35.4408 16.8096 35.5581C16.6923 35.6753 16.6265 35.8342 16.6265 36C16.6265 36.1658 16.6923 36.3247 16.8096 36.4419C16.9268 36.5592 17.0857 36.625 17.2515 36.625H22.8765V39.75H15.3765C14.8794 39.7495 14.4028 39.5517 14.0513 39.2002C13.6998 38.8487 13.502 38.3721 13.5015 37.875ZM49.75 44.125H12.25V41H49.75V44.125Z" fill="white"/>
<path d="M40.0645 36C40.6825 36 41.2867 35.8167 41.8006 35.4733C42.3145 35.13 42.7151 34.6419 42.9516 34.0709C43.1881 33.4999 43.25 32.8715 43.1294 32.2653C43.0088 31.6592 42.7112 31.1023 42.2742 30.6653C41.8371 30.2283 41.2803 29.9306 40.6741 29.81C40.0679 29.6895 39.4396 29.7514 38.8686 29.9879C38.2975 30.2244 37.8095 30.6249 37.4661 31.1388C37.1227 31.6527 36.9395 32.2569 36.9395 32.875C36.9404 33.7035 37.27 34.4978 37.8558 35.0836C38.4417 35.6695 39.236 35.999 40.0645 36ZM40.0645 31C40.4353 31 40.7978 31.11 41.1061 31.316C41.4145 31.522 41.6548 31.8149 41.7967 32.1575C41.9386 32.5001 41.9758 32.8771 41.9034 33.2408C41.8311 33.6045 41.6525 33.9386 41.3903 34.2008C41.1281 34.463 40.794 34.6416 40.4302 34.714C40.0665 34.7863 39.6895 34.7492 39.3469 34.6073C39.0043 34.4654 38.7115 34.225 38.5054 33.9167C38.2994 33.6084 38.1895 33.2458 38.1895 32.875C38.19 32.3779 38.3877 31.9013 38.7392 31.5498C39.0907 31.1983 39.5673 31.0005 40.0645 31Z" fill="white"/>
</g>
<defs>
<clipPath id="clip0_2_17">
<rect width="40" height="40" fill="white" transform="translate(11 6)"/>
</clipPath>
</defs>
</svg>
