<svg width="58" height="57" viewBox="0 0 58 57" fill="none" xmlns="http://www.w3.org/2000/svg">
<path d="M0 28.5C0 12.7599 12.7599 0 28.5 0H58V28C58 44.0162 44.7641 57 28.7478 57C13.0077 57 0 44.2401 0 28.5Z" fill="#213CC1"/>
<g clip-path="url(#clip0_3053_7482)">
<path d="M40.6836 20.8779C41.0395 20.8779 41.3281 20.5806 41.3281 20.2139V12.9922C41.3281 11.8937 40.4607 11 39.3945 11H15.9336C14.8674 11 14 11.8937 14 12.9922V43.0078C14 44.1063 14.8674 45 15.9336 45H39.3945C40.4607 45 41.3281 44.1063 41.3281 43.0078V38.1155C41.3281 37.7487 41.0395 37.4514 40.6836 37.4514C40.3277 37.4514 40.039 37.7487 40.039 38.1155V43.0078C40.039 43.374 39.7499 43.6718 39.3945 43.6718H15.9336C15.5782 43.6718 15.2891 43.374 15.2891 43.0078V12.9922C15.2891 12.626 15.5782 12.3281 15.9336 12.3281H39.3945C39.7499 12.3281 40.039 12.626 40.039 12.9922V20.2139C40.039 20.5806 40.3277 20.8779 40.6836 20.8779Z" fill="white"/>
<path d="M27.6641 14.5859C24.3944 14.5859 21.7344 17.3266 21.7344 20.6953C21.7344 22.4429 22.4504 24.0213 23.5959 25.1358C23.6174 25.1595 23.6402 25.1818 23.6651 25.2022C24.7203 26.1969 26.1245 26.8046 27.664 26.8046C29.2035 26.8046 30.6077 26.1969 31.6629 25.2022C31.6878 25.1818 31.7106 25.1594 31.7321 25.1358C32.8777 24.0213 33.5937 22.4429 33.5937 20.6953C33.5937 17.3266 30.9337 14.5859 27.6641 14.5859ZM27.6641 25.4766C26.6116 25.4766 25.6403 25.1132 24.8609 24.5025C25.4274 23.4676 26.4845 22.8203 27.6641 22.8203C28.8436 22.8203 29.9007 23.4676 30.4672 24.5025C29.6878 25.1132 28.7165 25.4766 27.6641 25.4766ZM26.6328 20.4297V19.998C26.6328 19.4122 27.0955 18.9355 27.6641 18.9355C28.2327 18.9355 28.6953 19.4122 28.6953 19.998V20.4297C28.6953 21.0155 28.2327 21.4922 27.6641 21.4922C27.0955 21.4922 26.6328 21.0155 26.6328 20.4297ZM31.3985 23.5297C30.9231 22.8034 30.2644 22.2385 29.4995 21.8897C29.8031 21.4855 29.9844 20.9791 29.9844 20.4297V19.998C29.9844 18.6798 28.9435 17.6074 27.6641 17.6074C26.3846 17.6074 25.3437 18.6798 25.3437 19.998V20.4297C25.3437 20.9791 25.5251 21.4855 25.8286 21.8897C25.0638 22.2385 24.405 22.8034 23.9296 23.5297C23.3606 22.736 23.0234 21.7556 23.0234 20.6953C23.0234 18.0589 25.1052 15.9141 27.6641 15.9141C30.2229 15.9141 32.3047 18.0589 32.3047 20.6953C32.3047 21.7556 31.9675 22.736 31.3985 23.5297Z" fill="white"/>
<path d="M31.1445 40.0859H27.6641C27.3082 40.0859 27.0195 40.3832 27.0195 40.75C27.0195 41.1168 27.3082 41.4141 27.6641 41.4141H31.1445C31.5004 41.4141 31.7891 41.1168 31.7891 40.75C31.7891 40.3832 31.5004 40.0859 31.1445 40.0859Z" fill="white"/>
<path d="M31.1445 36.3672H21.9922C21.6363 36.3672 21.3477 36.6645 21.3477 37.0312C21.3477 37.398 21.6363 37.6953 21.9922 37.6953H31.1445C31.5004 37.6953 31.7891 37.398 31.7891 37.0312C31.7891 36.6645 31.5004 36.3672 31.1445 36.3672Z" fill="white"/>
<path d="M31.1445 32.6484H21.9922C21.6363 32.6484 21.3477 32.9457 21.3477 33.3125C21.3477 33.6793 21.6363 33.9766 21.9922 33.9766H31.1445C31.5004 33.9766 31.7891 33.6793 31.7891 33.3125C31.7891 32.9457 31.5004 32.6484 31.1445 32.6484Z" fill="white"/>
<path d="M19.6945 29.1243C19.5747 29.0007 19.4084 28.9297 19.2383 28.9297C19.0687 28.9297 18.9024 29.0007 18.7826 29.1243C18.6627 29.2478 18.5938 29.4191 18.5938 29.5937C18.5938 29.7684 18.6627 29.9397 18.7826 30.0632C18.9031 30.1868 19.0687 30.2578 19.2383 30.2578C19.4084 30.2578 19.5741 30.1868 19.6945 30.0632C19.8144 29.9397 19.8835 29.7684 19.8835 29.5937C19.8835 29.4191 19.8145 29.2478 19.6945 29.1243Z" fill="white"/>
<path d="M19.6945 32.843C19.5741 32.7195 19.4084 32.6484 19.2383 32.6484C19.0687 32.6484 18.9031 32.7195 18.7826 32.843C18.6627 32.9665 18.5938 33.1379 18.5938 33.3125C18.5938 33.4871 18.6627 33.6585 18.7826 33.782C18.9031 33.9055 19.0687 33.9766 19.2383 33.9766C19.4084 33.9766 19.5741 33.9055 19.6945 33.782C19.8144 33.6585 19.8835 33.4871 19.8835 33.3125C19.8835 33.1379 19.8145 32.9665 19.6945 32.843Z" fill="white"/>
<path d="M19.6945 36.5618C19.5741 36.4382 19.4084 36.3672 19.2383 36.3672C19.0687 36.3672 18.9031 36.4382 18.7826 36.5618C18.6627 36.6853 18.5938 36.8566 18.5938 37.0312C18.5938 37.2059 18.6627 37.3772 18.7826 37.5007C18.9024 37.6243 19.0687 37.6953 19.2383 37.6953C19.4084 37.6953 19.5747 37.6243 19.6945 37.5007C19.8144 37.3772 19.8835 37.2059 19.8835 37.0312C19.8835 36.8566 19.8145 36.6853 19.6945 36.5618Z" fill="white"/>
<path d="M31.1445 28.9297H21.9922C21.6363 28.9297 21.3477 29.227 21.3477 29.5937C21.3477 29.9605 21.6363 30.2578 21.9922 30.2578H31.1445C31.5004 30.2578 31.7891 29.9605 31.7891 29.5937C31.7891 29.227 31.5004 28.9297 31.1445 28.9297Z" fill="white"/>
<path d="M45.6457 19.6541C45.0196 19.2817 44.2901 19.1827 43.5916 19.3755C42.8931 19.5684 42.3093 20.0299 41.9479 20.675L33.837 35.1491C33.7926 35.2285 33.7645 35.3165 33.7546 35.4075L33.1837 40.6764C33.1553 40.9386 33.2802 41.1933 33.5019 41.3252C33.602 41.3847 33.7132 41.4142 33.8241 41.4142C33.959 41.4142 34.0933 41.3707 34.2064 41.2848L38.3497 38.1409C38.4213 38.0866 38.4813 38.0176 38.5257 37.9382L46.6365 23.4641C47.3829 22.1323 46.9384 20.4231 45.6457 19.6541ZM34.6282 39.3153L34.9264 36.564L36.7918 37.6736L34.6282 39.3153ZM37.7316 36.699L35.2756 35.2381L41.7844 23.623L44.2404 25.0839L37.7316 36.699ZM45.5202 22.8L44.8849 23.9338L42.4289 22.4728L43.0642 21.3391C43.2536 21.0011 43.5593 20.7594 43.9252 20.6584C44.2911 20.5573 44.6732 20.6093 45.0011 20.8044C45.3291 20.9995 45.5638 21.3145 45.6618 21.6914C45.7598 22.0683 45.7095 22.4621 45.5202 22.8Z" fill="white"/>
</g>
<defs>
<clipPath id="clip0_3053_7482">
<rect width="33" height="34" fill="white" transform="translate(14 11)"/>
</clipPath>
</defs>
</svg>
