<svg width="159" height="136" viewBox="0 0 159 136" fill="none" xmlns="http://www.w3.org/2000/svg">
<path d="M1 134.379C4.51763 131.301 14.1935 125.146 24.7559 125.146C37.9589 125.146 33.0324 132.437 47.4178 132.437C61.8031 132.437 57.9605 125.146 70.0796 125.146C82.1988 125.146 76.9767 132.437 88.9974 132.437C101.018 132.437 101.215 125.146 115.009 125.146C128.803 125.146 124.567 132.437 136.587 132.437C146.204 132.437 154.52 126.525 157.476 123.569" stroke="#96C1EC" stroke-width="3"/>
<path d="M1 119.183C4.51763 116.105 14.1935 109.95 24.7559 109.95C37.9589 109.95 33.0324 117.241 47.4178 117.241C61.8031 117.241 57.9605 109.95 70.0796 109.95C82.1988 109.95 76.9767 117.241 88.9974 117.241C101.018 117.241 101.215 109.95 115.009 109.95C128.803 109.95 124.567 117.241 136.587 117.241C146.204 117.241 154.52 111.329 157.476 108.373" stroke="#96C1EC" stroke-width="3"/>
<path d="M1 103.987C4.51763 100.909 14.1935 94.7533 24.7559 94.7533C37.9589 94.7533 33.0324 102.044 47.4178 102.044C61.8031 102.044 57.9605 94.7533 70.0796 94.7533C82.1988 94.7533 76.9767 102.044 88.9974 102.044C101.018 102.044 101.215 94.7533 115.009 94.7533C128.803 94.7533 124.567 102.044 136.587 102.044C146.204 102.044 154.52 96.1327 157.476 93.1768" stroke="#96C1EC" stroke-width="3"/>
<path d="M1 88.7903C4.51763 85.7125 14.1935 79.557 24.7559 79.557C37.9589 79.557 33.0324 86.8482 47.4178 86.8482C61.8031 86.8482 57.9605 79.557 70.0796 79.557C82.1988 79.557 76.9767 86.8482 88.9974 86.8482C101.018 86.8482 101.215 79.557 115.009 79.557C128.803 79.557 124.567 86.8482 136.587 86.8482C146.204 86.8482 154.52 80.9364 157.476 77.9805" stroke="#96C1EC" stroke-width="3"/>
<path d="M1 73.594C4.51763 70.5162 14.1935 64.3607 24.7559 64.3607C37.9589 64.3607 33.0324 71.6519 47.4178 71.6519C61.8031 71.6519 57.9605 64.3607 70.0796 64.3607C82.1988 64.3607 76.9767 71.6519 88.9974 71.6519C101.018 71.6519 101.215 64.3607 115.009 64.3607C128.803 64.3607 124.567 71.6519 136.587 71.6519C146.204 71.6519 154.52 65.7401 157.476 62.7842" stroke="#96C1EC" stroke-width="3"/>
<path d="M1 58.3987C4.51763 55.3209 14.1935 49.1654 24.7559 49.1654C37.9589 49.1654 33.0324 56.4565 47.4178 56.4565C61.8031 56.4565 57.9605 49.1654 70.0796 49.1654C82.1988 49.1654 76.9767 56.4565 88.9974 56.4565C101.018 56.4565 101.215 49.1654 115.009 49.1654C128.803 49.1654 124.567 56.4565 136.587 56.4565C146.204 56.4565 154.52 50.5448 157.476 47.5889" stroke="#96C1EC" stroke-width="3"/>
<path d="M1 43.2024C4.51763 40.1246 14.1935 33.9691 24.7559 33.9691C37.9589 33.9691 33.0324 41.2603 47.4178 41.2603C61.8031 41.2603 57.9605 33.9691 70.0796 33.9691C82.1988 33.9691 76.9767 41.2603 88.9974 41.2603C101.018 41.2603 101.215 33.9691 115.009 33.9691C128.803 33.9691 124.567 41.2603 136.587 41.2603C146.204 41.2603 154.52 35.3485 157.476 32.3926" stroke="#96C1EC" stroke-width="3"/>
<path d="M1 28.0061C4.51763 24.9284 14.1935 18.7729 24.7559 18.7729C37.9589 18.7729 33.0324 26.064 47.4178 26.064C61.8031 26.064 57.9605 18.7729 70.0796 18.7729C82.1988 18.7729 76.9767 26.064 88.9974 26.064C101.018 26.064 101.215 18.7729 115.009 18.7729C128.803 18.7729 124.567 26.064 136.587 26.064C146.204 26.064 154.52 20.1522 157.476 17.1963" stroke="#96C1EC" stroke-width="3"/>
<path d="M1 12.8098C4.51763 9.73207 14.1935 3.57656 24.7559 3.57656C37.9589 3.57656 33.0324 10.8677 47.4178 10.8677C61.8031 10.8677 57.9605 3.57656 70.0796 3.57656C82.1988 3.57656 76.9767 10.8677 88.9974 10.8677C101.018 10.8677 101.215 3.57656 115.009 3.57656C128.803 3.57656 124.567 10.8677 136.587 10.8677C146.204 10.8677 154.52 4.95589 157.476 2" stroke="#96C1EC" stroke-width="3"/>
</svg>
