<svg xmlns="http://www.w3.org/2000/svg" width="25" height="25" fill="none" viewBox="0 0 25 25"><g clip-path="url(#clip0_4708_74634)"><path fill="url(#paint0_radial_4708_74634)" d="M12.182.447c-4.935 0-6.379.005-6.659.028C4.51.56 3.88.72 3.193 1.061a4.724 4.724 0 00-1.358.994C1.085 2.834.631 3.791.466 4.93c-.08.553-.103.665-.108 3.489-.002.94 0 2.18 0 3.84 0 4.931.006 6.373.03 6.653.081.986.236 1.606.563 2.284a4.98 4.98 0 003.227 2.636c.487.126 1.026.195 1.717.228.292.012 3.276.021 6.261.021 2.986 0 5.971-.003 6.257-.018.8-.037 1.264-.1 1.778-.232a4.95 4.95 0 003.227-2.642c.321-.662.484-1.306.558-2.24.015-.203.022-3.45.022-6.693 0-3.242-.007-6.483-.023-6.687-.075-.949-.237-1.587-.569-2.262a4.684 4.684 0 00-1.011-1.386C21.613 1.174 20.656.72 19.517.555c-.553-.08-.663-.103-3.488-.108h-3.847z"/><path fill="url(#paint1_radial_4708_74634)" d="M12.182.447c-4.935 0-6.379.005-6.659.028C4.51.56 3.88.72 3.193 1.061a4.724 4.724 0 00-1.358.994C1.085 2.834.631 3.791.466 4.93c-.08.553-.103.665-.108 3.489-.002.94 0 2.18 0 3.84 0 4.931.006 6.373.03 6.653.081.986.236 1.606.563 2.284a4.98 4.98 0 003.227 2.636c.487.126 1.026.195 1.717.228.292.012 3.276.021 6.261.021 2.986 0 5.971-.003 6.257-.018.8-.037 1.264-.1 1.778-.232a4.95 4.95 0 003.227-2.642c.321-.662.484-1.306.558-2.24.015-.203.022-3.45.022-6.693 0-3.242-.007-6.483-.023-6.687-.075-.949-.237-1.587-.569-2.262a4.684 4.684 0 00-1.011-1.386C21.613 1.174 20.656.72 19.517.555c-.553-.08-.663-.103-3.488-.108h-3.847z"/><path fill="#fff" d="M12.177 3.538c-2.37 0-2.667.01-3.598.053-.93.042-1.564.19-2.119.405a4.273 4.273 0 00-1.546 1.006 4.284 4.284 0 00-1.007 1.546c-.216.555-.363 1.19-.405 2.118-.042.931-.053 1.229-.053 3.6 0 2.37.01 2.666.053 3.597.043.929.19 1.563.405 2.118.223.574.522 1.06 1.007 1.546.485.485.972.784 1.545 1.007.556.216 1.19.363 2.119.406.93.042 1.228.052 3.598.052s2.667-.01 3.598-.052c.929-.043 1.564-.19 2.12-.406a4.27 4.27 0 001.544-1.007 4.283 4.283 0 001.007-1.546c.215-.555.362-1.19.406-2.118.042-.931.053-1.228.053-3.598s-.011-2.668-.053-3.598c-.044-.93-.191-1.564-.406-2.119a4.282 4.282 0 00-1.007-1.546 4.265 4.265 0 00-1.545-1.006c-.557-.216-1.191-.363-2.12-.405-.931-.043-1.228-.053-3.598-.053h.002zm-.783 1.573h.783c2.33 0 2.607.008 3.527.05.85.039 1.313.18 1.62.3.407.158.698.348 1.003.653.305.305.495.596.653 1.004.12.307.262.769.3 1.62.043.92.052 1.196.052 3.525 0 2.33-.01 2.606-.051 3.526-.04.85-.181 1.312-.3 1.62a2.699 2.699 0 01-.654 1.002 2.696 2.696 0 01-1.003.653c-.307.12-.77.262-1.62.3-.92.042-1.197.052-3.527.052s-2.606-.01-3.526-.051c-.851-.04-1.313-.182-1.62-.301a2.703 2.703 0 01-1.005-.653 2.704 2.704 0 01-.653-1.003c-.12-.307-.261-.77-.3-1.62-.042-.92-.05-1.197-.05-3.527s.008-2.606.05-3.526c.039-.85.18-1.312.3-1.62.159-.407.348-.698.653-1.004a2.708 2.708 0 011.004-.653c.308-.12.77-.261 1.62-.3.806-.037 1.118-.048 2.744-.05v.003zm5.442 1.449a1.047 1.047 0 100 2.095 1.047 1.047 0 000-2.096zm-4.659 1.223a4.482 4.482 0 100 8.964 4.482 4.482 0 000-8.964zm0 1.573a2.91 2.91 0 110 5.818 2.91 2.91 0 010-5.818z"/></g><defs><radialGradient id="paint0_radial_4708_74634" cx="0" cy="0" r="1" gradientTransform="matrix(0 -23.4234 21.7915 0 6.637 25.902)" gradientUnits="userSpaceOnUse"><stop stop-color="#FD5"/><stop offset=".1" stop-color="#FD5"/><stop offset=".5" stop-color="#FF543E"/><stop offset="1" stop-color="#C837AB"/></radialGradient><radialGradient id="paint1_radial_4708_74634" cx="0" cy="0" r="1" gradientTransform="matrix(2.05567 10.26672 -42.33041 8.47566 -3.603 2.15)" gradientUnits="userSpaceOnUse"><stop stop-color="#3771C8"/><stop offset=".128" stop-color="#3771C8"/><stop offset="1" stop-color="#60F" stop-opacity="0"/></radialGradient><clipPath id="clip0_4708_74634"><path fill="#fff" d="M0 0h24.001v24H0z" transform="translate(.176 .265)"/></clipPath></defs></svg>