<svg width="79" height="82" viewBox="0 0 79 82" fill="none" xmlns="http://www.w3.org/2000/svg">
<path fill-rule="evenodd" clip-rule="evenodd" d="M16.2378 71.9088L5.66409 10.1866C4.25137 10.2644 2.816 9.74184 1.78801 8.63835C-0.0257593 6.69135 0.115553 3.67302 2.10364 1.89674C4.09173 0.120452 7.17375 0.258845 8.98753 2.20585C10.2075 3.51539 10.5429 5.30958 10.0269 6.88453L69.4873 32.834C69.7494 32.3067 70.1158 31.8181 70.5852 31.3988C72.5732 29.6225 75.6553 29.7609 77.469 31.7079C79.2828 33.6549 79.1415 36.6732 77.1534 38.4495C75.2376 40.1612 72.306 40.0949 70.4724 38.3457L21.7021 74.0116C22.9026 75.9245 22.5875 78.4627 20.8313 80.0317C18.8432 81.808 15.7612 81.6696 13.9475 79.7226C12.1337 77.7756 12.275 74.7573 14.2631 72.981C14.8469 72.4594 15.5251 72.1029 16.2378 71.9088ZM8.6719 8.94745C8.81438 8.82015 8.94738 8.68646 9.07086 8.54725L38.7825 29.3722C37.7966 31.1144 37.9995 33.3489 39.4462 34.9018C39.7612 35.2399 40.1144 35.5235 40.4936 35.752L19.4829 72.1257C18.7539 71.8173 17.9616 71.6902 17.179 71.7478L6.60828 10.043C7.35343 9.85491 8.06383 9.49074 8.6719 8.94745ZM41.3545 36.1619L20.3183 72.5798C20.6063 72.7751 20.877 73.004 21.1245 73.2662L69.8546 37.6296C69.3371 36.8951 69.0554 36.0543 69.0048 35.2048L47.7613 32.8908C47.5321 33.7543 47.0532 34.5648 46.3301 35.2109C44.9376 36.455 43.0086 36.7599 41.3545 36.1619ZM47.9103 31.9656L69.0428 34.2674C69.0691 34.0811 69.1066 33.8961 69.1553 33.7135L9.64687 7.74306C9.63912 7.7567 9.6313 7.77031 9.6234 7.78388L39.326 28.6025C39.4597 28.4481 39.605 28.3003 39.7618 28.1602C41.7499 26.3839 44.8319 26.5223 46.6457 28.4693C47.5678 29.4592 47.9846 30.7259 47.9103 31.9656Z" fill="#EAF0FE"/>
</svg>

