<svg width="80" height="80" viewBox="0 0 80 80" fill="none" xmlns="http://www.w3.org/2000/svg">
<path d="M76.9154 6.16918C75.2157 6.16918 73.8308 4.78426 73.8308 3.08459C73.8308 1.38492 75.2157 0 76.9154 0C78.6151 0 80 1.38492 80 3.08459C80 4.79476 78.6151 6.16918 76.9154 6.16918ZM80 21.5397C80 19.84 78.6151 18.4551 76.9154 18.4551C75.2157 18.4551 73.8308 19.84 73.8308 21.5397C73.8308 23.2393 75.2157 24.6243 76.9154 24.6243C78.6151 24.6243 80 23.2498 80 21.5397ZM80 39.9948C80 38.2951 78.6151 36.9102 76.9154 36.9102C75.2157 36.9102 73.8308 38.2951 73.8308 39.9948C73.8308 41.6944 75.2157 43.0793 76.9154 43.0793C78.6151 43.0898 80 41.7049 80 39.9948ZM80 58.4603C80 56.7607 78.6151 55.3757 76.9154 55.3757C75.2157 55.3757 73.8308 56.7607 73.8308 58.4603C73.8308 60.16 75.2157 61.5449 76.9154 61.5449C78.6151 61.5449 80 60.16 80 58.4603ZM80 76.9154C80 75.2157 78.6151 73.8308 76.9154 73.8308C75.2157 73.8308 73.8308 75.2157 73.8308 76.9154C73.8308 78.6151 75.2157 80 76.9154 80C78.6151 80 80 78.6151 80 76.9154ZM61.5449 3.08459C61.5449 1.38492 60.16 0 58.4603 0C56.7606 0 55.3757 1.38492 55.3757 3.08459C55.3757 4.78426 56.7606 6.16918 58.4603 6.16918C60.16 6.16918 61.5449 4.79476 61.5449 3.08459ZM61.5449 21.5397C61.5449 19.84 60.16 18.4551 58.4603 18.4551C56.7606 18.4551 55.3757 19.84 55.3757 21.5397C55.3757 23.2393 56.7606 24.6243 58.4603 24.6243C60.16 24.6243 61.5449 23.2498 61.5449 21.5397ZM61.5449 39.9948C61.5449 38.2951 60.16 36.9102 58.4603 36.9102C56.7606 36.9102 55.3757 38.2951 55.3757 39.9948C55.3757 41.6944 56.7606 43.0793 58.4603 43.0793C60.16 43.0898 61.5449 41.7049 61.5449 39.9948ZM61.5449 58.4603C61.5449 56.7607 60.16 55.3757 58.4603 55.3757C56.7606 55.3757 55.3757 56.7607 55.3757 58.4603C55.3757 60.16 56.7606 61.5449 58.4603 61.5449C60.16 61.5449 61.5449 60.16 61.5449 58.4603ZM61.5449 76.9154C61.5449 75.2157 60.16 73.8308 58.4603 73.8308C56.7606 73.8308 55.3757 75.2157 55.3757 76.9154C55.3757 78.6151 56.7606 80 58.4603 80C60.16 80 61.5449 78.6151 61.5449 76.9154ZM43.0793 3.08459C43.0793 1.38492 41.6944 0 39.9947 0C38.2951 0 36.9102 1.38492 36.9102 3.08459C36.9102 4.78426 38.2951 6.16918 39.9947 6.16918C41.7049 6.16918 43.0793 4.79476 43.0793 3.08459ZM43.0793 21.5397C43.0793 19.84 41.6944 18.4551 39.9947 18.4551C38.2951 18.4551 36.9102 19.84 36.9102 21.5397C36.9102 23.2393 38.2951 24.6243 39.9947 24.6243C41.7049 24.6243 43.0793 23.2498 43.0793 21.5397ZM43.0793 39.9948C43.0793 38.2951 41.6944 36.9102 39.9947 36.9102C38.2951 36.9102 36.9102 38.2951 36.9102 39.9948C36.9102 41.6944 38.2951 43.0793 39.9947 43.0793C41.7049 43.0898 43.0793 41.7049 43.0793 39.9948ZM43.0793 58.4603C43.0793 56.7607 41.6944 55.3757 39.9947 55.3757C38.2951 55.3757 36.9102 56.7607 36.9102 58.4603C36.9102 60.16 38.2951 61.5449 39.9947 61.5449C41.7049 61.5449 43.0793 60.16 43.0793 58.4603ZM43.0793 76.9154C43.0793 75.2157 41.6944 73.8308 39.9947 73.8308C38.2951 73.8308 36.9102 75.2157 36.9102 76.9154C36.9102 78.6151 38.2951 80 39.9947 80C41.7049 80 43.0793 78.6151 43.0793 76.9154ZM24.6242 3.08459C24.6242 1.38492 23.2393 0 21.5396 0C19.84 0 18.4551 1.38492 18.4551 3.08459C18.4551 4.78426 19.84 6.16918 21.5396 6.16918C23.2498 6.16918 24.6242 4.79476 24.6242 3.08459ZM24.6242 21.5397C24.6242 19.84 23.2393 18.4551 21.5396 18.4551C19.84 18.4551 18.4551 19.84 18.4551 21.5397C18.4551 23.2393 19.84 24.6243 21.5396 24.6243C23.2498 24.6243 24.6242 23.2498 24.6242 21.5397ZM24.6242 39.9948C24.6242 38.2951 23.2393 36.9102 21.5396 36.9102C19.84 36.9102 18.4551 38.2951 18.4551 39.9948C18.4551 41.6944 19.84 43.0793 21.5396 43.0793C23.2498 43.0898 24.6242 41.7049 24.6242 39.9948ZM24.6242 58.4603C24.6242 56.7607 23.2393 55.3757 21.5396 55.3757C19.84 55.3757 18.4551 56.7607 18.4551 58.4603C18.4551 60.16 19.84 61.5449 21.5396 61.5449C23.2498 61.5449 24.6242 60.16 24.6242 58.4603ZM24.6242 76.9154C24.6242 75.2157 23.2393 73.8308 21.5396 73.8308C19.84 73.8308 18.4551 75.2157 18.4551 76.9154C18.4551 78.6151 19.84 80 21.5396 80C23.2498 80 24.6242 78.6151 24.6242 76.9154ZM6.16919 3.08459C6.16919 1.38492 4.78426 0 3.08459 0C1.38492 0 0 1.38492 0 3.08459C0 4.78426 1.38492 6.16918 3.08459 6.16918C4.78426 6.16918 6.16919 4.79476 6.16919 3.08459ZM6.16919 21.5397C6.16919 19.84 4.78426 18.4551 3.08459 18.4551C1.38492 18.4551 0 19.84 0 21.5397C0 23.2393 1.38492 24.6243 3.08459 24.6243C4.78426 24.6243 6.16919 23.2498 6.16919 21.5397ZM6.16919 39.9948C6.16919 38.2951 4.78426 36.9102 3.08459 36.9102C1.38492 36.9102 0 38.2951 0 39.9948C0 41.6944 1.38492 43.0793 3.08459 43.0793C4.78426 43.0793 6.16919 41.7049 6.16919 39.9948ZM6.16919 58.4603C6.16919 56.7607 4.78426 55.3757 3.08459 55.3757C1.38492 55.3757 0 56.7607 0 58.4603C0 60.16 1.38492 61.5449 3.08459 61.5449C4.78426 61.5449 6.16919 60.16 6.16919 58.4603ZM6.16919 76.9154C6.16919 75.2157 4.78426 73.8308 3.08459 73.8308C1.38492 73.8308 0 75.2157 0 76.9154C0 78.6151 1.38492 80 3.08459 80C4.78426 80 6.16919 78.6151 6.16919 76.9154Z" fill="#244579"/>
</svg>
