<svg width="100" height="100" viewBox="0 0 100 100" fill="none" xmlns="http://www.w3.org/2000/svg">
<path fill-rule="evenodd" clip-rule="evenodd" d="M34.451 11.3757C31.8838 12.3516 27.8774 14.4954 24.9782 16.4441C21.5097 18.7757 16.744 23.2226 14.3708 26.3422C10.1079 31.9454 7.8779 37.6443 6.59647 46.2108C5.73467 51.9712 5.67338 53.4337 5.59387 70.1535C5.50932 87.9355 5.43224 86.8193 6.84126 88.2282C8.20081 89.5879 7.39647 89.5268 23.9565 89.5268C39.9508 89.5268 39.3909 89.5594 40.7123 88.5514C41.0498 88.2941 41.5368 87.7247 41.7947 87.2861L42.2635 86.4886L42.3105 71.3384L42.3578 56.1882L41.9826 55.3162C41.5421 54.2924 40.3333 53.1514 39.4203 52.8978C39.046 52.794 35.9269 52.7228 31.7166 52.7223L24.642 52.7212V51.6296C24.642 49.144 25.3506 44.9257 26.2378 42.1309C27.4171 38.4153 29.2166 35.4195 31.8232 32.8322C33.9498 30.7212 36.4123 29.0448 39.8739 27.3511C42.4052 26.1127 42.7848 25.8054 43.4803 24.432C43.6645 24.0683 43.7873 23.42 43.7933 22.7792C43.802 21.8516 43.6864 21.4749 42.8314 19.6448C39.5775 12.6811 39.3114 12.2393 37.9522 11.5459C36.9555 11.0374 35.5243 10.9679 34.451 11.3757ZM85.7899 11.2485C84.8277 11.4261 80.3036 13.64 77.8538 15.132C70.4215 19.6586 64.6199 25.723 61.2249 32.5141C58.7425 37.4799 57.5128 42.4962 56.6468 51.1917C56.4166 53.5025 56.3506 56.9575 56.2885 69.9785C56.2025 87.9556 56.1248 86.8172 57.5357 88.2282C58.8953 89.5877 58.092 89.5268 74.642 89.5268C90.7734 89.5268 90.2079 89.5618 91.5197 88.4806C91.8638 88.1969 92.3477 87.5587 92.5951 87.0624L93.0447 86.1599L93.0409 71.1334C93.0371 56.3914 93.0303 56.0919 92.6834 55.3254C92.277 54.4273 91.6571 53.7278 90.7878 53.1865C90.1942 52.8167 90.0078 52.8059 82.7173 52.7212L75.2545 52.6344L75.3074 51.2455C75.4444 47.6582 76.3104 43.3889 77.5131 40.373C78.7498 37.2719 80.2308 35.0099 82.4784 32.7898C84.5239 30.7693 86.6123 29.3296 89.8904 27.6803C93.0329 26.0992 93.9112 25.3705 94.267 24.0497C94.688 22.4863 94.4663 21.6987 92.3942 17.3914C91.2378 14.9875 90.2116 13.0948 89.8157 12.6358C88.8102 11.4697 87.3387 10.9625 85.7899 11.2485Z" fill="#213CC1"/>
</svg>
