<svg xmlns="http://www.w3.org/2000/svg" width="25" height="25" fill="none" viewBox="0 0 25 25"><g clip-path="url(#clip0_4708_74638)"><path fill="url(#paint0_linear_4708_74638)" d="M10.198 24.145c-5.7-1.02-10.02-5.94-10.02-11.88 0-6.6 5.4-12 12-12s12 5.4 12 12c0 5.94-4.32 10.86-10.02 11.88l-.66-.54h-2.64l-.66.54z"/><path fill="#fff" d="M16.858 15.625l.54-3.36h-3.18v-2.34c0-.96.36-1.68 1.8-1.68h1.56v-3.06c-.84-.12-1.8-.24-2.64-.24-2.76 0-4.68 1.68-4.68 4.68v2.64h-3v3.36h3v8.46a11.048 11.048 0 003.96 0v-8.46h2.64z"/></g><defs><linearGradient id="paint0_linear_4708_74638" x1="12.178" x2="12.178" y1="23.43" y2=".261" gradientUnits="userSpaceOnUse"><stop stop-color="#0062E0"/><stop offset="1" stop-color="#19AFFF"/></linearGradient><clipPath id="clip0_4708_74638"><path fill="#fff" d="M0 0h24v24H0z" transform="translate(.178 .265)"/></clipPath></defs></svg>