<svg xmlns="http://www.w3.org/2000/svg" width="30" height="25" fill="none" viewBox="0 0 30 25"><g clip-path="url(#clip0_4708_74632)"><path fill="#1D9BF0" d="M26.111 6.3c.018.255.018.51.018.768 0 7.85-5.977 16.904-16.905 16.904v-.004a16.82 16.82 0 01-9.107-2.664 11.93 11.93 0 008.793-2.462 5.949 5.949 0 01-5.55-4.126c.89.172 1.808.136 2.682-.102A5.942 5.942 0 011.276 8.79v-.075c.826.46 1.75.715 2.696.743a5.949 5.949 0 01-1.838-7.933 16.863 16.863 0 0012.244 6.207 5.948 5.948 0 0110.125-5.419c1.33-.262 2.606-.75 3.773-1.442a5.963 5.963 0 01-2.612 3.286 11.815 11.815 0 003.412-.935 12.068 12.068 0 01-2.965 3.077z"/></g><defs><clipPath id="clip0_4708_74632"><path fill="#fff" d="M0 0h29.177v24H0z" transform="translate(0 .265)"/></clipPath></defs></svg>