<svg xmlns="http://www.w3.org/2000/svg" width="24" height="25" fill="none" viewBox="0 0 24 25"><g fill-rule="evenodd" clip-path="url(#clip0_4708_74628)" clip-rule="evenodd"><path fill="#007EBB" d="M2.667 24.265h18.666A2.667 2.667 0 0024 21.6V2.931A2.667 2.667 0 0021.333.265H2.667A2.667 2.667 0 000 2.932v18.667a2.667 2.667 0 002.667 2.666z"/><path fill="#fff" d="M20.667 20.932h-3.561v-6.066c0-1.663-.632-2.593-1.948-2.593-1.432 0-2.18.967-2.18 2.593v6.066H9.544V9.376h3.432v1.557s1.032-1.91 3.485-1.91c2.45 0 4.205 1.497 4.205 4.593v7.316zM5.45 7.863a2.124 2.124 0 01-2.116-2.132c0-1.178.947-2.133 2.116-2.133 1.17 0 2.116.955 2.116 2.133A2.124 2.124 0 015.45 7.863zM3.678 20.932h3.58V9.376h-3.58v11.556z"/></g><defs><clipPath id="clip0_4708_74628"><path fill="#fff" d="M0 0h24v24H0z" transform="translate(0 .265)"/></clipPath></defs></svg>